<svg xmlns="http://www.w3.org/2000/svg" viewBox="0 0 128 128" role="img" aria-label="托福词汇">
  <rect x="11" y="10" width="106" height="108" rx="28" fill="#EAF6FF"/>
  <path d="M19 95c9 14 25 22 45 22s36-8 45-22v8c0 11-20 20-45 20s-45-9-45-20v-8z" fill="#C7E9FF"/>
  <circle cx="64" cy="60" r="35" fill="#1CB0F6" stroke="#1688C5" stroke-width="7"/>
  <path d="M33 60h62M64 25c-13 13-13 57 0 70M64 25c13 13 13 57 0 70" fill="none" stroke="#FFFFFF" stroke-width="7" stroke-linecap="round"/>
  <path d="M41 39c12 6 34 6 46 0M41 81c12-6 34-6 46 0" fill="none" stroke="#FFFFFF" stroke-width="6" stroke-linecap="round" opacity=".9"/>
  <text x="64" y="111" text-anchor="middle" font-family="Arial Rounded MT Bold, Arial, sans-serif" font-size="23" font-weight="900" fill="#1688C5">T</text>
</svg>
